<svg width="49" height="50" viewBox="0 0 49 50" fill="none" xmlns="http://www.w3.org/2000/svg">
<g filter="url(#filter0_d_603_604)">
<mask id="path-1-inside-1_603_604" fill="white">
<ellipse cx="30.3215" cy="12.8103" rx="1.92649" ry="1.8015"/>
</mask>
<path d="M30.248 12.8103C30.248 12.7665 30.2581 12.7231 30.2744 12.6873C30.2897 12.6533 30.3071 12.6333 30.3177 12.6233C30.3381 12.6043 30.3443 12.6118 30.3215 12.6118V16.6118C32.3616 16.6118 34.248 15.0341 34.248 12.8103H30.248ZM30.3215 12.6118C30.2988 12.6118 30.3049 12.6043 30.3253 12.6233C30.3359 12.6333 30.3533 12.6533 30.3687 12.6873C30.3849 12.7231 30.395 12.7665 30.395 12.8103H26.395C26.395 15.0341 28.2815 16.6118 30.3215 16.6118V12.6118ZM30.395 12.8103C30.395 12.8541 30.3849 12.8975 30.3687 12.9333C30.3533 12.9673 30.3359 12.9873 30.3253 12.9972C30.3049 13.0163 30.2988 13.0088 30.3215 13.0088V9.00879C28.2815 9.00879 26.395 10.5865 26.395 12.8103H30.395ZM30.3215 13.0088C30.3443 13.0088 30.3381 13.0163 30.3177 12.9972C30.3071 12.9873 30.2897 12.9673 30.2744 12.9333C30.2581 12.8975 30.248 12.8541 30.248 12.8103H34.248C34.248 10.5865 32.3616 9.00879 30.3215 9.00879V13.0088Z" fill="#104473" mask="url(#path-1-inside-1_603_604)"/>
</g>
<path d="M38.7332 12.8392C39.9533 11.6982 39.9533 10.5573 39.9533 8.92211C39.9533 5.09914 37.824 2 35.1975 2C31.8303 2 29.678 6.52128 30.4938 11.3755" stroke="#104473" stroke-width="3"/>
<path d="M21.6404 26.8728C21.4303 26.1573 21.1242 25.472 20.831 24.7845C20.6605 24.3861 20.5238 23.9808 20.4778 23.5548C20.3883 22.715 21.137 22.2089 21.9728 22.5258C22.2094 22.6156 22.404 22.758 22.588 22.9149C23.2933 23.5227 23.8031 24.2466 24.1096 25.0986C24.2616 25.5234 24.4082 25.5759 24.8322 25.3802C25.2796 25.1728 25.7144 24.9434 26.1567 24.7262C26.4534 24.5798 26.5235 24.3631 26.4085 24.0717C26.1959 23.5398 25.9234 23.0435 25.5729 22.5801C25.1131 21.9777 25.1158 21.9753 25.6759 21.4597C26.4663 20.7342 26.4663 20.7342 25.6904 19.9902C25.5781 19.8826 25.4685 19.7725 25.3536 19.6672C24.9807 19.3293 24.854 19.3302 24.4696 19.6617C24.297 19.8095 24.1346 19.9671 23.962 20.1198C23.4622 20.5708 23.4675 20.5612 22.8303 20.2733C21.2886 19.5784 19.8094 19.6287 18.4792 20.7032C17.3006 21.6538 17.1161 22.882 17.4598 24.2349C17.6709 25.0689 18.0794 25.8327 18.397 26.6317C18.5221 26.9426 18.6212 27.258 18.6478 27.587C18.733 28.5549 17.8432 29.1754 16.8814 28.8111C16.367 28.6166 15.9526 28.2926 15.617 27.8777C15.0982 27.2383 14.6887 26.547 14.4381 25.773C14.2916 25.3193 14.1553 25.2717 13.7 25.4863C13.3072 25.6727 12.922 25.8712 12.5367 26.0697C12.0187 26.3368 11.9627 26.4643 12.152 27.0031C12.3961 27.6876 12.7912 28.2966 13.2331 28.8819C13.5785 29.3404 13.5729 29.3693 13.1384 29.7752C12.942 29.959 12.7405 30.1427 12.5442 30.3266C12.2955 30.5581 12.2663 30.8043 12.5138 31.0514C12.7943 31.3302 13.0827 31.6068 13.3764 31.8737C13.6164 32.0941 13.8672 32.0897 14.1106 31.8678C14.3828 31.6196 14.6703 31.3813 14.9323 31.1233C15.1969 30.8581 15.4556 30.8418 15.7892 31.0246C16.5564 31.4469 17.3966 31.6357 18.2816 31.5639C20.7347 31.3703 22.3103 29.1553 21.6404 26.8728Z" fill="#06BD6D"/>
<path d="M21.0227 43.0948L30.6361 45.8638C31.6704 46.1617 32.7426 45.65 33.0928 44.6914L40.5678 24.2287C40.762 23.6972 40.7023 23.1033 40.4045 22.6017L38.8413 19.9696" stroke="#104473" stroke-width="3"/>
<path d="M18.9552 11.1471C19.3199 10.8158 19.8045 10.62 20.3163 10.5972L32.7873 10.0427C33.9356 9.9916 34.9113 10.8076 34.9661 11.8648L35.5451 23.0288C35.5729 23.5652 35.3549 24.0878 34.9442 24.4691L17.2851 40.8666C16.4481 41.6439 15.075 41.6186 14.2724 40.8111L2.35293 28.8191C1.59764 28.0593 1.63015 26.8855 2.42653 26.1621L18.9552 11.1471Z" stroke="#104473" stroke-width="3"/>
<defs>
<filter id="filter0_d_603_604" x="24.395" y="11.0088" width="11.853" height="11.6025" filterUnits="userSpaceOnUse" color-interpolation-filters="sRGB">
<feFlood flood-opacity="0" result="BackgroundImageFix"/>
<feColorMatrix in="SourceAlpha" type="matrix" values="0 0 0 0 0 0 0 0 0 0 0 0 0 0 0 0 0 0 127 0" result="hardAlpha"/>
<feOffset dy="4"/>
<feGaussianBlur stdDeviation="2"/>
<feColorMatrix type="matrix" values="0 0 0 0 0 0 0 0 0 0 0 0 0 0 0 0 0 0 0.25 0"/>
<feBlend mode="normal" in2="BackgroundImageFix" result="effect1_dropShadow_603_604"/>
<feBlend mode="normal" in="SourceGraphic" in2="effect1_dropShadow_603_604" result="shape"/>
</filter>
</defs>
</svg>
