<svg width="48" height="48" viewBox="0 0 48 48" fill="none" xmlns="http://www.w3.org/2000/svg">
<path fill-rule="evenodd" clip-rule="evenodd" d="M38.6952 43.0095H9.4381C8.09145 43.0095 7 41.9181 7 40.5714V6.4381C7 5.09145 8.09145 4 9.4381 4C9.4381 4 21.9618 4 30.6211 4L41.1333 13.7524C41.1333 23.7583 41.1333 40.5714 41.1333 40.5714C41.1333 41.9181 40.0419 43.0095 38.6952 43.0095Z" stroke="#0F4572" stroke-width="2.5"/>
<path d="M41.1335 17.0032H29.7558C28.8577 17.0032 28.1304 16.275 28.1304 15.3778V4" stroke="#0F4572" stroke-width="2.5"/>
<path fill-rule="evenodd" clip-rule="evenodd" d="M15.9342 19.7245L15.9351 19.7233C15.9753 19.6534 16 19.5742 16 19.4889C16 19.219 15.772 19 15.4909 19C15.3282 19 15.1854 19.0747 15.0922 19.1887L15.0918 19.1885L15.0901 19.1909C15.0643 19.2228 15.0414 19.2568 15.0243 19.2942L12.9072 22.6262L11.9324 21.4825H11.9322C11.8408 21.3512 11.6856 21.2649 11.5089 21.2649C11.2278 21.2649 11 21.4839 11 21.7538C11 21.8908 11.0592 22.0143 11.1538 22.1032L12.448 23.7764H12.4485C12.539 23.9105 12.6959 24 12.8751 24C13.0872 24 13.2689 23.8749 13.3452 23.6974L15.8996 19.778C15.9126 19.761 15.9237 19.7429 15.9342 19.7245Z" fill="#0F4572"/>
<path fill-rule="evenodd" clip-rule="evenodd" d="M18.6957 22H33.3043C33.6883 22 34 22.448 34 23C34 23.552 33.6883 24 33.3043 24H18.6957C18.3117 24 18 23.552 18 23C18 22.448 18.3117 22 18.6957 22Z" fill="#0F4572"/>
<path fill-rule="evenodd" clip-rule="evenodd" d="M15.9342 26.7245L15.9351 26.7233C15.9753 26.6534 16 26.5742 16 26.4889C16 26.219 15.772 26 15.4909 26C15.3282 26 15.1854 26.0747 15.0922 26.1887L15.0918 26.1885L15.0901 26.1909C15.0643 26.2228 15.0414 26.2568 15.0243 26.2942L12.9072 29.6262L11.9324 28.4825H11.9322C11.8408 28.3512 11.6856 28.2649 11.5089 28.2649C11.2278 28.2649 11 28.4839 11 28.7538C11 28.8908 11.0592 29.0143 11.1538 29.1032L12.448 30.7764H12.4485C12.539 30.9105 12.6959 31 12.8751 31C13.0872 31 13.2689 30.8749 13.3452 30.6974L15.8996 26.778C15.9126 26.761 15.9237 26.7429 15.9342 26.7245Z" fill="#06BD6D"/>
<path fill-rule="evenodd" clip-rule="evenodd" d="M18.6957 29H33.3043C33.6883 29 34 29.448 34 30C34 30.552 33.6883 31 33.3043 31H18.6957C18.3117 31 18 30.552 18 30C18 29.448 18.3117 29 18.6957 29Z" fill="#06BD6D"/>
<path fill-rule="evenodd" clip-rule="evenodd" d="M15.9342 33.7245L15.9351 33.7233C15.9753 33.6534 16 33.5742 16 33.4889C16 33.219 15.772 33 15.4909 33C15.3282 33 15.1854 33.0747 15.0922 33.1887L15.0918 33.1885L15.0901 33.1909C15.0643 33.2228 15.0414 33.2568 15.0243 33.2942L12.9072 36.6262L11.9324 35.4825H11.9322C11.8408 35.3512 11.6856 35.2649 11.5089 35.2649C11.2278 35.2649 11 35.4839 11 35.7538C11 35.8908 11.0592 36.0143 11.1538 36.1032L12.448 37.7764H12.4485C12.539 37.9105 12.6959 38 12.8751 38C13.0872 38 13.2689 37.8749 13.3452 37.6974L15.8996 33.778C15.9126 33.761 15.9237 33.7429 15.9342 33.7245Z" fill="#0F4572"/>
<path fill-rule="evenodd" clip-rule="evenodd" d="M18.6957 36H33.3043C33.6883 36 34 36.448 34 37C34 37.552 33.6883 38 33.3043 38H18.6957C18.3117 38 18 37.552 18 37C18 36.448 18.3117 36 18.6957 36Z" fill="#0F4572"/>
</svg>
