<svg width="48" height="48" viewBox="0 0 48 48" fill="none" xmlns="http://www.w3.org/2000/svg">
<g clip-path="url(#clip0_605_610)">
<path d="M29.2787 19.7988C27.3184 19.7988 25.4752 20.6311 24.0046 22.1366C22.5381 20.6157 20.7163 19.7988 18.7206 19.7988C15.2361 19.7988 12.158 22.3264 11.2353 25.9452C10.7519 27.8409 10.6507 30.8582 12.9131 34.4661C14.9339 37.6884 18.4047 40.6566 23.2289 43.2883C23.4688 43.4192 23.7334 43.4846 23.9984 43.4846C24.263 43.4846 24.528 43.4192 24.7677 43.2886C29.5934 40.6569 33.0653 37.6886 35.0869 34.4663C37.3503 30.8584 37.2495 27.8413 36.7662 25.9457C35.8431 22.3264 32.7643 19.7988 29.2787 19.7988ZM23.9982 40.038C13.4527 34.0122 13.936 28.3576 14.3488 26.7392C14.8994 24.5796 16.738 23.0121 18.7204 23.0121C20.2285 23.0121 21.615 23.9299 22.6237 25.5963C22.9147 26.077 23.4359 26.3707 23.998 26.3709C23.998 26.3709 23.998 26.3709 23.9982 26.3709C24.5601 26.3709 25.0813 26.0774 25.3722 25.5969C26.3823 23.9301 27.7693 23.0121 29.2785 23.0121C31.2622 23.0121 33.1015 24.5796 33.652 26.7392C34.0648 28.3574 34.5473 34.0117 23.9982 40.038Z" fill="#104473"/>
<path d="M17.0684 17.0439C20.5225 17.0439 23.3326 14.234 23.3326 10.7801C23.3326 7.32577 20.5225 4.51562 17.0684 4.51562C13.6141 4.51562 10.8037 7.32599 10.8037 10.7801C10.8037 14.234 13.6141 17.0439 17.0684 17.0439ZM17.0684 7.72894C18.7509 7.72894 20.1193 9.09781 20.1193 10.7801C20.1193 12.4621 18.7507 13.8306 17.0684 13.8306C15.3859 13.8306 14.017 12.4621 14.017 10.7801C14.017 9.09759 15.3857 7.72894 17.0684 7.72894Z" fill="#104473"/>
<path d="M30.9322 17.0439C34.3863 17.0439 37.1965 14.234 37.1965 10.7801C37.1965 7.32577 34.3863 4.51562 30.9322 4.51562C27.4781 4.51562 24.668 7.32599 24.668 10.7801C24.6678 14.234 27.4779 17.0439 30.9322 17.0439ZM30.9322 7.72894C32.6145 7.72894 33.9831 9.09781 33.9831 10.7801C33.9831 12.4621 32.6145 13.8306 30.9322 13.8306C29.2497 13.8306 27.8813 12.4621 27.8813 10.7801C27.8811 9.09759 29.2497 7.72894 30.9322 7.72894Z" fill="#104473"/>
<path d="M5.7981 14.0146C2.60107 14.0146 0 16.6159 0 19.8134C0 23.0104 2.60107 25.6113 5.7981 25.6113C8.99556 25.6113 11.5966 23.0102 11.5966 19.8134C11.5968 16.6159 8.99556 14.0146 5.7981 14.0146ZM5.7981 22.398C4.37289 22.398 3.21331 21.2386 3.21331 19.8134C3.21331 18.388 4.37289 17.2282 5.7981 17.2282C7.22352 17.2282 8.38331 18.388 8.38331 19.8134C8.38353 21.2386 7.22374 22.398 5.7981 22.398Z" fill="#104473"/>
<path d="M42.2014 14.0146C39.0042 14.0146 36.4033 16.6159 36.4033 19.8132C36.4033 23.0102 39.0044 25.6111 42.2014 25.6111C45.3989 25.6111 47.9999 23.01 47.9999 19.8132C47.9999 16.6159 45.3989 14.0146 42.2014 14.0146ZM42.2014 22.398C40.7762 22.398 39.6166 21.2384 39.6166 19.8134C39.6166 18.388 40.7762 17.2282 42.2014 17.2282C43.6268 17.2282 44.7866 18.388 44.7866 19.8134C44.7866 21.2386 43.6268 22.398 42.2014 22.398Z" fill="#104473"/>
</g>
<defs>
<clipPath id="clip0_605_610">
<rect width="48" height="48" fill="white"/>
</clipPath>
</defs>
</svg>
