<svg width="48" height="48" viewBox="0 0 48 48" fill="none" xmlns="http://www.w3.org/2000/svg">
<g clip-path="url(#clip0_602_579)">
<path fill-rule="evenodd" clip-rule="evenodd" d="M36.2903 37.7643L33.8613 35.0654C33.4919 34.6549 33.5252 34.0226 33.9357 33.6532C34.3462 33.2837 34.9785 33.317 35.3479 33.7275L36.0278 34.483C35.6122 32.1726 34.5845 30.0019 33.035 28.2056C31.035 25.8872 28.2904 24.3372 25.2722 23.8217C27.0911 21.8309 28.0836 19.2222 28.048 16.5258V15.585C28.0606 14.1995 27.7986 12.8252 27.2771 11.5416C26.7556 10.2579 25.9849 9.09028 25.0097 8.10611C24.0344 7.12194 22.8738 6.34074 21.5949 5.80761C20.3161 5.27448 18.9442 5 17.5587 5C16.1731 5 14.8013 5.27448 13.5224 5.80761C12.2436 6.34074 11.0829 7.12194 10.1077 8.10611C9.13239 9.09028 8.36176 10.2579 7.84025 11.5416C7.31875 12.8252 7.05672 14.1995 7.06929 15.585V16.5258C7.04848 17.9308 7.30767 19.3259 7.83171 20.6297C8.35576 21.9335 9.13417 23.1199 10.1216 24.1197C7.30182 24.7847 4.78402 26.3702 2.9659 28.6257C1.14778 30.8813 0.132993 33.6783 0.0818655 36.575C0.0790598 36.6707 0.0709712 36.7661 0.0576625 36.8609C-0.0714751 37.4772 0.0178177 38.1192 0.310212 38.6769C0.602607 39.2346 1.0799 39.6732 1.66026 39.9175C5.59458 41.8492 9.54532 43.0017 18.1569 43.0017C26.7686 43.0017 30.7202 41.8492 34.658 39.9166C35.2408 39.6633 35.7183 39.2165 36.0095 38.6516C36.1538 38.3718 36.248 38.0716 36.2903 37.7643ZM9.49953 15.7586V16.5215C9.49953 18.6712 10.3535 20.7328 11.8735 22.2528C13.3936 23.7729 15.4552 24.6268 17.6049 24.6268C19.7546 24.6268 21.8162 23.7729 23.3363 22.2528C24.8563 20.7328 25.7103 18.6712 25.7103 16.5215V15.7586C25.7103 13.609 24.8563 11.5473 23.3363 10.0273C21.8162 8.50725 19.7546 7.65329 17.6049 7.65329C15.4552 7.65329 13.3936 8.50725 11.8735 10.0273C10.3535 11.5473 9.49953 13.609 9.49953 15.7586ZM18.3202 40.378C26.0766 40.378 30.3418 39.3749 33.7111 37.762C33.7634 37.7405 33.812 37.7111 33.8553 37.6748C33.8293 37.5637 33.8126 37.4507 33.8053 37.3369C33.7838 37.1629 33.7716 36.9879 33.769 36.8125C33.769 34.5188 31.9642 27.1728 22.6882 25.9919C21.1654 26.7103 19.5066 27.0952 17.823 27.1207C16.1394 27.1462 14.4697 26.8117 12.9259 26.1396C4.17688 27.515 2.7799 34.6311 2.7799 36.8566C2.77691 37.0322 2.76481 37.2075 2.74362 37.3819C2.72922 37.4884 2.72087 37.5957 2.71857 37.7033C2.72916 37.7059 2.74817 37.716 2.7756 37.7306C2.79296 37.7398 2.81369 37.7508 2.83779 37.7629C6.20625 39.375 10.5639 40.378 18.3202 40.378Z" fill="#104473"/>
<path fill-rule="evenodd" clip-rule="evenodd" d="M39.0699 42.9532C44.0019 42.9532 48.0001 38.955 48.0001 34.023C48.0001 29.091 44.0019 25.0928 39.0699 25.0928C34.1379 25.0928 30.1396 29.091 30.1396 34.023C30.1396 38.955 34.1379 42.9532 39.0699 42.9532ZM44.7025 30.9085C45.0373 30.4692 44.9525 29.8418 44.5132 29.5071C44.0739 29.1723 43.4464 29.2571 43.1117 29.6964L37.8896 36.5504L35.3481 33.7265C34.9786 33.316 34.3463 33.2828 33.9358 33.6522C33.5253 34.0217 33.492 34.654 33.8615 35.0645L37.2103 38.7854L38.0177 39.6824L38.7491 38.7225L44.7025 30.9085Z" fill="#104473"/>
</g>
<defs>
<clipPath id="clip0_602_579">
<rect width="48" height="48" fill="white"/>
</clipPath>
</defs>
</svg>
