<svg width="48" height="48" viewBox="0 0 48 48" fill="none" xmlns="http://www.w3.org/2000/svg">
<g clip-path="url(#clip0_605_632)">
<path d="M16.2923 33C7.25392 34.5 2.16975 44.25 3.11134 48.0001H44.5372C44.5372 38.25 35.7499 33.9375 31.3562 33H16.2923Z" fill="#0F4572"/>
<path fill-rule="evenodd" clip-rule="evenodd" d="M34.0834 5.55675C33.8827 5.91912 34.0138 6.37554 34.3762 6.57619C35.0641 6.95709 36.2668 8.27475 37.182 10.5839C37.8037 12.1526 38.2759 14.1412 38.3567 16.5167C37.7307 15.7747 36.8965 15.2131 35.9438 14.9213V24.6729C36.0983 24.6255 36.2498 24.5711 36.3977 24.5099V26.6222C36.3977 27.8648 35.3903 28.8722 34.1477 28.8722H26.8622C26.6245 28.3577 26.1038 28.0007 25.4998 28.0007H21.4998C20.6714 28.0007 19.9998 28.6723 19.9998 29.5007C19.9998 30.3291 20.6714 31.0007 21.4998 31.0007H25.4998C26.0032 31.0007 26.4487 30.7527 26.7208 30.3722H34.1477C36.2188 30.3722 37.8977 28.6933 37.8977 26.6222V23.5553C38.7461 22.7791 39.3309 21.7214 39.503 20.5307C39.6079 20.4179 39.6791 20.272 39.6984 20.1073C40.1866 15.9361 39.5692 12.5361 38.5765 10.0312C37.5992 7.56539 36.2209 5.88303 35.1028 5.26393C34.7404 5.06328 34.284 5.19438 34.0834 5.55675ZM12.821 5.85751C13.0217 6.21988 12.8906 6.6763 12.5282 6.87695C12.2213 7.04689 11.7741 7.45931 11.2849 8.17635C10.8053 8.87922 10.3174 9.82809 9.90634 11.0055C9.38843 12.489 8.99663 14.3236 8.89348 16.4647C9.51429 15.7484 10.3317 15.2062 11.2621 14.9213V24.673C9.62258 24.1709 8.334 22.8699 7.85361 21.2257C7.69154 21.1068 7.57741 20.9235 7.5522 20.7081C7.06532 16.5482 7.59205 13.0837 8.49016 10.5111C8.93879 9.22607 9.48273 8.15619 10.0458 7.33093C10.5992 6.51984 11.2055 5.89476 11.8016 5.56469C12.1639 5.36404 12.6204 5.49514 12.821 5.85751Z" fill="#06BD6D"/>
<path fill-rule="evenodd" clip-rule="evenodd" d="M30.9478 27.0133H28.2433C27.8244 26.3121 27.0578 25.8424 26.1816 25.8424H20.3997C19.0744 25.8424 18 26.9168 18 28.2422C18 28.3417 18.0061 28.4398 18.0178 28.5362C14.7966 26.6643 12.6318 23.1839 12.6318 19.1995C12.6318 13.2348 17.4832 8.39941 23.4676 8.39941C29.4521 8.39941 34.3034 13.2348 34.3034 19.1995C34.3034 22.273 33.0153 25.0466 30.9478 27.0133Z" fill="#0F4572"/>
<path fill-rule="evenodd" clip-rule="evenodd" d="M20.117 0C18.0397 0.393176 16.1495 1.10581 14.6137 1.97142C12.933 2.91866 11.534 4.131 10.8809 5.44248C10.5731 6.06044 10.8246 6.81089 11.4425 7.11865C12.0605 7.42642 12.8109 7.17496 13.1187 6.557C13.4513 5.88925 14.3549 4.98699 15.8411 4.14934C17.2899 3.33284 19.1596 2.65458 21.232 2.34658C25.3611 1.73292 30.1989 2.59427 34.1469 6.63216C34.6295 7.12578 35.4209 7.1347 35.9145 6.65207C36.4081 6.16945 36.4171 5.37804 35.9344 4.88442C33.2074 2.0952 30.1027 0.605908 27.0374 0H20.117Z" fill="#06BD6D"/>
</g>
<defs>
<clipPath id="clip0_605_632">
<rect width="48" height="48" fill="white"/>
</clipPath>
</defs>
</svg>
