<svg width="48" height="49" viewBox="0 0 48 49" fill="none" xmlns="http://www.w3.org/2000/svg">
<path d="M24 26.2652C27.2131 26.2652 34.7677 22.3982 34.7677 13.1324C34.7677 11.84 34.7363 10.5915 34.6297 9.41185C34.4548 7.09025 33.9793 5.03277 32.7954 3.45596C31.2768 1.31017 28.62 0 24 0C19.3808 0 16.7241 1.30963 15.2055 3.45476C14.0208 5.03197 13.545 7.08998 13.3703 9.41238C13.2639 10.5919 13.2324 11.8403 13.2324 13.1326C13.2323 22.3982 20.7868 26.2652 24 26.2652ZM27.5147 4.81114C27.2012 5.60374 27.044 6.00011 26.7302 6.79258C24.7045 6.22027 23.2952 6.22027 21.2695 6.79258C20.9558 6.00011 20.7987 5.60374 20.4849 4.81114C23.0183 4.04425 24.9817 4.04438 27.5147 4.81114ZM14.8341 11.1234C14.9583 11.3947 15.4853 12.438 16.3011 12.5358C17.2388 12.6483 18.7954 9.21473 24 9.20634C29.2044 9.21473 30.7611 12.6483 31.6989 12.5358C32.5147 12.4379 33.0417 11.3947 33.1658 11.1234C33.191 11.7883 33.2003 12.4614 33.2003 13.1326C33.2003 17.6616 31.2005 20.4679 29.5227 22.0245C27.4089 23.9859 25.0619 24.6978 24.0001 24.6978C22.9383 24.6978 20.5913 23.9859 18.4775 22.0245C16.7996 20.4679 14.7999 17.6616 14.7999 13.1326C14.7998 12.4614 14.809 11.7883 14.8341 11.1234Z" fill="#104473"/>
<mask id="path-2-inside-1_603_599" fill="white">
<path d="M43.9904 39.7341C43.4406 36.316 42.309 31.9128 40.039 30.3481C38.4887 29.2791 33.0802 26.3896 30.7706 25.1558L30.7315 25.135C30.4676 24.9939 30.1451 25.0223 29.9099 25.207C28.7 26.1568 27.3748 26.7969 25.971 27.1095C25.723 27.1648 25.5194 27.341 25.4295 27.5784L24 31.3465L22.5703 27.5784C22.4804 27.341 22.2769 27.1648 22.0288 27.1095C20.6251 26.7969 19.2999 26.1568 18.0901 25.207C17.8544 25.0222 17.5322 24.9939 17.2682 25.135C14.9862 26.3544 9.51151 29.303 7.96786 30.3436C5.35458 32.1039 4.2121 38.4749 4.00952 39.7342C3.98954 39.8592 4.00113 39.9869 4.04321 40.1062C4.09862 40.2626 4.96288 42.5012 9.28509 44.3011C9.53428 43.9871 9.86619 43.7489 10.2395 43.6149C9.77575 43.4503 9.37326 43.1276 9.11581 42.6945C8.73223 42.049 8.71797 41.2391 9.07772 40.5824C10.1858 38.5539 12.3081 37.2918 14.6189 37.2888C16.7682 37.2888 18.7167 38.3568 19.8737 40.0928H28.1215C28.3479 39.7546 28.6076 39.4383 28.899 39.1459C30.091 37.9504 31.6769 37.2909 33.3647 37.2885H33.366H33.3673C35.6763 37.2885 37.8011 38.5437 38.9131 40.5652C39.2735 41.2213 39.2614 42.0296 38.8801 42.6772C38.6241 43.1104 38.2227 43.4342 37.7595 43.6003C38.1393 43.7348 38.4764 43.9765 38.7275 44.296C43.0386 42.4971 43.9015 40.2626 43.957 40.1065C43.9989 39.9868 44.0105 39.8589 43.9904 39.7341Z"/>
</mask>
<path d="M43.9904 39.7341C43.4406 36.316 42.309 31.9128 40.039 30.3481C38.4887 29.2791 33.0802 26.3896 30.7706 25.1558L30.7315 25.135C30.4676 24.9939 30.1451 25.0223 29.9099 25.207C28.7 26.1568 27.3748 26.7969 25.971 27.1095C25.723 27.1648 25.5194 27.341 25.4295 27.5784L24 31.3465L22.5703 27.5784C22.4804 27.341 22.2769 27.1648 22.0288 27.1095C20.6251 26.7969 19.2999 26.1568 18.0901 25.207C17.8544 25.0222 17.5322 24.9939 17.2682 25.135C14.9862 26.3544 9.51151 29.303 7.96786 30.3436C5.35458 32.1039 4.2121 38.4749 4.00952 39.7342C3.98954 39.8592 4.00113 39.9869 4.04321 40.1062C4.09862 40.2626 4.96288 42.5012 9.28509 44.3011C9.53428 43.9871 9.86619 43.7489 10.2395 43.6149C9.77575 43.4503 9.37326 43.1276 9.11581 42.6945C8.73223 42.049 8.71797 41.2391 9.07772 40.5824C10.1858 38.5539 12.3081 37.2918 14.6189 37.2888C16.7682 37.2888 18.7167 38.3568 19.8737 40.0928H28.1215C28.3479 39.7546 28.6076 39.4383 28.899 39.1459C30.091 37.9504 31.6769 37.2909 33.3647 37.2885H33.366H33.3673C35.6763 37.2885 37.8011 38.5437 38.9131 40.5652C39.2735 41.2213 39.2614 42.0296 38.8801 42.6772C38.6241 43.1104 38.2227 43.4342 37.7595 43.6003C38.1393 43.7348 38.4764 43.9765 38.7275 44.296C43.0386 42.4971 43.9015 40.2626 43.957 40.1065C43.9989 39.9868 44.0105 39.8589 43.9904 39.7341Z" stroke="#104473" stroke-width="3" mask="url(#path-2-inside-1_603_599)"/>
<path d="M37.0505 45.3418H37.05L33.0762 45.3473C33.0057 45.18 32.8704 44.7155 32.8691 43.6072C32.8672 42.4988 33.0009 42.0335 33.0712 41.8658L37.044 41.8599C37.1389 41.8594 37.2266 41.8094 37.2746 41.7278C37.323 41.6459 37.3243 41.5452 37.2788 41.4621C36.495 40.0372 34.9993 39.1523 33.3672 39.1523C32.1773 39.1541 31.0596 39.6192 30.2196 40.4617C29.7867 40.8956 29.4564 41.4039 29.2362 41.9567H18.7586C18.1008 40.3165 16.4955 39.1527 14.6189 39.1527C12.9917 39.155 11.4955 40.045 10.7141 41.4757C10.6685 41.5588 10.6704 41.6599 10.7187 41.7412C10.7671 41.8226 10.8547 41.8723 10.9494 41.8723H10.9497L14.9235 41.866C14.9942 42.0333 15.1292 42.4979 15.1306 43.6065C15.1324 44.7151 14.9987 45.1802 14.9284 45.3476L10.9557 45.3536C10.861 45.3537 10.7733 45.404 10.725 45.4854C10.6769 45.5671 10.6753 45.6682 10.7211 45.7513C11.5047 47.176 13.0009 48.0615 14.6259 48.0615H14.6325C15.8226 48.0597 16.9401 47.5946 17.7804 46.7519C18.2132 46.3177 18.5434 45.8093 18.7634 45.2565H29.2408C29.8987 46.8972 31.5028 48.0609 33.3748 48.0611C33.3748 48.0611 33.3808 48.0611 33.381 48.0611C35.0079 48.0589 36.5044 47.1684 37.2858 45.7386C37.3314 45.6554 37.3295 45.5542 37.2812 45.4729C37.2328 45.3915 37.1452 45.3418 37.0505 45.3418Z" fill="#104473"/>
</svg>
