<svg width="32" height="32" viewBox="0 0 32 32" fill="none" xmlns="http://www.w3.org/2000/svg">
<path d="M26.0448 29.3254H17.3648C17.0763 29.3254 16.8125 29.1441 16.7053 28.872C16.6064 28.6 16.6806 28.2868 16.9031 28.0972C17.373 27.685 17.6285 27.1245 17.6285 26.5227C17.6285 25.3604 16.6806 24.4207 15.5265 24.4207C14.3725 24.4207 13.4245 25.3687 13.4245 26.5227C13.4245 27.1327 13.6801 27.685 14.1499 28.0972C14.3725 28.2868 14.4467 28.6 14.3478 28.872C14.2488 29.1441 13.9851 29.3254 13.6883 29.3254H5.70067C5.31324 29.3254 5 29.0122 5 28.6247V20.6454C5 20.3568 5.18135 20.0931 5.45337 19.9859C5.7254 19.887 6.03864 19.9612 6.22823 20.1837C6.64039 20.6536 7.20093 20.9091 7.80268 20.9091C8.96497 20.9091 9.90469 19.9612 9.90469 18.8071C9.90469 17.6448 8.95672 16.7051 7.80268 16.7051C7.19268 16.7051 6.64039 16.9607 6.22823 17.4305C6.03864 17.6531 5.7254 17.7273 5.45337 17.6284C5.18135 17.5212 5 17.2657 5 16.9689V8.28059C5 7.89316 5.31324 7.57992 5.70067 7.57992H12.3117C12.1139 7.14304 12.0149 6.66493 12.0149 6.17858C12.0149 4.24144 13.5894 2.66699 15.5265 2.66699C17.4637 2.66699 19.0381 4.24144 19.0381 6.17858C19.0381 6.66493 18.931 7.14304 18.7414 7.57992H26.0531C26.4405 7.57992 26.7537 7.89316 26.7537 8.28059V15.5923C27.1906 15.3945 27.6687 15.2955 28.1551 15.2955C30.0922 15.2955 31.6667 16.87 31.6667 18.8071C31.6667 20.7443 30.0922 22.3105 28.1551 22.3105C27.6687 22.3105 27.1906 22.2033 26.7537 22.0137V28.6247C26.7455 29.0122 26.4323 29.3254 26.0448 29.3254ZM18.7331 27.9241H25.3442V20.6454C25.3442 20.3568 25.5255 20.0931 25.7975 19.9859C26.0696 19.887 26.3828 19.9612 26.5724 20.1837C26.9845 20.6536 27.5451 20.9091 28.1468 20.9091C29.3091 20.9091 30.2488 19.9612 30.2488 18.8071C30.2488 17.6448 29.3009 16.7051 28.1468 16.7051C27.5368 16.7051 26.9845 16.9607 26.5724 17.4305C26.3828 17.6531 26.0696 17.7273 25.7975 17.6284C25.5255 17.5212 25.3442 17.2657 25.3442 16.9689V8.98126H17.3648C17.0763 8.98126 16.8125 8.79991 16.7053 8.52789C16.6064 8.25586 16.6806 7.94262 16.9031 7.75303C17.373 7.34087 17.6285 6.78034 17.6285 6.17858C17.6285 5.0163 16.6806 4.07657 15.5265 4.07657C14.3725 4.07657 13.4245 5.02454 13.4245 6.17858C13.4245 6.78858 13.6801 7.34087 14.1499 7.75303C14.3725 7.94262 14.4467 8.25586 14.3478 8.52789C14.2488 8.79991 13.9851 8.98126 13.6883 8.98126H6.40134V15.5923C6.83823 15.3945 7.31633 15.2955 7.80268 15.2955C9.73983 15.2955 11.3143 16.87 11.3143 18.8071C11.3143 20.7443 9.73983 22.3105 7.80268 22.3105C7.31633 22.3105 6.83823 22.2033 6.40134 22.0137V27.9241H12.3117C12.1139 27.4872 12.0149 27.0091 12.0149 26.5227C12.0149 24.5856 13.5894 23.0111 15.5183 23.0111C17.4554 23.0111 19.0299 24.5856 19.0299 26.5227C19.0299 27.0091 18.931 27.4872 18.7331 27.9241Z" fill="#104473" stroke="#104473" stroke-width="0.2"/>
</svg>
