<svg width="48" height="48" viewBox="0 0 48 48" fill="none" xmlns="http://www.w3.org/2000/svg">
<g clip-path="url(#clip0_606_670)">
<mask id="path-1-outside-1_606_670" maskUnits="userSpaceOnUse" x="0.561523" y="32.2588" width="7" height="7" fill="black">
<rect fill="white" x="0.561523" y="32.2588" width="7" height="7"/>
<path d="M4.16421 33.2588C2.72909 33.2588 1.56152 34.4264 1.56152 35.8615C1.56152 37.2966 2.72909 38.4642 4.16421 38.4642C5.59933 38.4642 6.7669 37.2966 6.7669 35.8615C6.7669 34.4264 5.59933 33.2588 4.16421 33.2588ZM4.16421 37.4231C3.30324 37.4231 2.6026 36.7224 2.6026 35.8615C2.6026 35.0005 3.30324 34.2999 4.16421 34.2999C5.02518 34.2999 5.72582 35.0005 5.72582 35.8615C5.72582 36.7224 5.02518 37.4231 4.16421 37.4231Z"/>
</mask>
<path d="M4.16421 33.2588C2.72909 33.2588 1.56152 34.4264 1.56152 35.8615C1.56152 37.2966 2.72909 38.4642 4.16421 38.4642C5.59933 38.4642 6.7669 37.2966 6.7669 35.8615C6.7669 34.4264 5.59933 33.2588 4.16421 33.2588ZM4.16421 37.4231C3.30324 37.4231 2.6026 36.7224 2.6026 35.8615C2.6026 35.0005 3.30324 34.2999 4.16421 34.2999C5.02518 34.2999 5.72582 35.0005 5.72582 35.8615C5.72582 36.7224 5.02518 37.4231 4.16421 37.4231Z" fill="#06BD6D"/>
<path d="M4.16421 33.2588C2.72909 33.2588 1.56152 34.4264 1.56152 35.8615C1.56152 37.2966 2.72909 38.4642 4.16421 38.4642C5.59933 38.4642 6.7669 37.2966 6.7669 35.8615C6.7669 34.4264 5.59933 33.2588 4.16421 33.2588ZM4.16421 37.4231C3.30324 37.4231 2.6026 36.7224 2.6026 35.8615C2.6026 35.0005 3.30324 34.2999 4.16421 34.2999C5.02518 34.2999 5.72582 35.0005 5.72582 35.8615C5.72582 36.7224 5.02518 37.4231 4.16421 37.4231Z" stroke="#06BD6D" stroke-width="0.4" mask="url(#path-1-outside-1_606_670)"/>
<mask id="path-2-outside-2_606_670" maskUnits="userSpaceOnUse" x="-1" y="9.87598" width="30" height="32" fill="black">
<rect fill="white" x="-1" y="9.87598" width="30" height="32"/>
<path d="M28.6296 29.0948C28.6296 27.7961 27.9138 27.1886 27.2163 26.8914C27.7629 26.414 28.109 25.7118 28.109 24.9305C28.109 23.4954 26.9415 22.3278 25.5063 22.3278H18.0283L18.4078 20.5528C18.9143 18.1848 18.5816 15.4952 18.4682 14.7274C18.1985 12.9092 16.5906 10.876 14.8421 10.876H14.7177C13.8869 10.876 12.4929 11.3491 12.4929 14.5197C12.4929 18.696 11.4508 20.6069 10.5768 21.4741C9.71948 22.3247 8.89495 22.3153 8.84914 22.3278H8.3286V21.2867H0V41.0672H8.3286V40.0261H22.9037C24.3388 40.0261 25.5063 38.8585 25.5063 37.4234C25.5063 36.8175 25.2981 36.2595 24.9499 35.8165C26.1544 35.589 27.068 34.5287 27.068 33.2591C27.068 32.6532 26.8597 32.0952 26.5115 31.6522C27.716 31.4247 28.6296 30.3644 28.6296 29.0948ZM1.04108 40.0261V22.3278H7.28753V40.0261H1.04108ZM26.0269 30.6564H24.4653H20.301C20.0136 30.6564 19.7804 30.8891 19.7804 31.1769C19.7804 31.4648 20.0136 31.6975 20.301 31.6975H24.4653C25.3262 31.6975 26.0269 32.3981 26.0269 33.2591C26.0269 34.1201 25.3262 34.8207 24.4653 34.8207H23.4242H22.9037H19.2599C18.9726 34.8207 18.7394 35.0534 18.7394 35.3412C18.7394 35.6291 18.9726 35.8618 19.2599 35.8618H22.9037C23.7646 35.8618 24.4653 36.5624 24.4653 37.4234C24.4653 38.2844 23.7646 38.985 22.9037 38.985H8.3286V23.3689L8.833 23.3684C8.88349 23.3782 10.0927 23.3944 11.2702 22.2523C12.7724 20.7969 13.534 18.1953 13.534 14.5197C13.534 13.5479 13.6875 11.9171 14.7177 11.9171H14.8421C16.0034 11.9171 17.2407 13.5463 17.438 14.8794C17.5458 15.604 17.8596 18.138 17.3896 20.3347L16.7415 23.3689H25.5063C26.3673 23.3689 27.068 24.0695 27.068 24.9305C27.068 25.7915 26.3673 26.4921 25.5063 26.4921H24.4653H23.9447H20.301C20.0136 26.4921 19.7804 26.7248 19.7804 27.0126C19.7804 27.3005 20.0136 27.5332 20.301 27.5332H23.9447C24.4044 27.5332 25.4152 27.554 25.9509 27.6336C27.31 27.8351 27.5885 28.3634 27.5885 29.0948C27.5885 29.9558 26.8878 30.6564 26.0269 30.6564Z"/>
</mask>
<path d="M28.6296 29.0948C28.6296 27.7961 27.9138 27.1886 27.2163 26.8914C27.7629 26.414 28.109 25.7118 28.109 24.9305C28.109 23.4954 26.9415 22.3278 25.5063 22.3278H18.0283L18.4078 20.5528C18.9143 18.1848 18.5816 15.4952 18.4682 14.7274C18.1985 12.9092 16.5906 10.876 14.8421 10.876H14.7177C13.8869 10.876 12.4929 11.3491 12.4929 14.5197C12.4929 18.696 11.4508 20.6069 10.5768 21.4741C9.71948 22.3247 8.89495 22.3153 8.84914 22.3278H8.3286V21.2867H0V41.0672H8.3286V40.0261H22.9037C24.3388 40.0261 25.5063 38.8585 25.5063 37.4234C25.5063 36.8175 25.2981 36.2595 24.9499 35.8165C26.1544 35.589 27.068 34.5287 27.068 33.2591C27.068 32.6532 26.8597 32.0952 26.5115 31.6522C27.716 31.4247 28.6296 30.3644 28.6296 29.0948ZM1.04108 40.0261V22.3278H7.28753V40.0261H1.04108ZM26.0269 30.6564H24.4653H20.301C20.0136 30.6564 19.7804 30.8891 19.7804 31.1769C19.7804 31.4648 20.0136 31.6975 20.301 31.6975H24.4653C25.3262 31.6975 26.0269 32.3981 26.0269 33.2591C26.0269 34.1201 25.3262 34.8207 24.4653 34.8207H23.4242H22.9037H19.2599C18.9726 34.8207 18.7394 35.0534 18.7394 35.3412C18.7394 35.6291 18.9726 35.8618 19.2599 35.8618H22.9037C23.7646 35.8618 24.4653 36.5624 24.4653 37.4234C24.4653 38.2844 23.7646 38.985 22.9037 38.985H8.3286V23.3689L8.833 23.3684C8.88349 23.3782 10.0927 23.3944 11.2702 22.2523C12.7724 20.7969 13.534 18.1953 13.534 14.5197C13.534 13.5479 13.6875 11.9171 14.7177 11.9171H14.8421C16.0034 11.9171 17.2407 13.5463 17.438 14.8794C17.5458 15.604 17.8596 18.138 17.3896 20.3347L16.7415 23.3689H25.5063C26.3673 23.3689 27.068 24.0695 27.068 24.9305C27.068 25.7915 26.3673 26.4921 25.5063 26.4921H24.4653H23.9447H20.301C20.0136 26.4921 19.7804 26.7248 19.7804 27.0126C19.7804 27.3005 20.0136 27.5332 20.301 27.5332H23.9447C24.4044 27.5332 25.4152 27.554 25.9509 27.6336C27.31 27.8351 27.5885 28.3634 27.5885 29.0948C27.5885 29.9558 26.8878 30.6564 26.0269 30.6564Z" fill="#06BD6D"/>
<path d="M28.6296 29.0948C28.6296 27.7961 27.9138 27.1886 27.2163 26.8914C27.7629 26.414 28.109 25.7118 28.109 24.9305C28.109 23.4954 26.9415 22.3278 25.5063 22.3278H18.0283L18.4078 20.5528C18.9143 18.1848 18.5816 15.4952 18.4682 14.7274C18.1985 12.9092 16.5906 10.876 14.8421 10.876H14.7177C13.8869 10.876 12.4929 11.3491 12.4929 14.5197C12.4929 18.696 11.4508 20.6069 10.5768 21.4741C9.71948 22.3247 8.89495 22.3153 8.84914 22.3278H8.3286V21.2867H0V41.0672H8.3286V40.0261H22.9037C24.3388 40.0261 25.5063 38.8585 25.5063 37.4234C25.5063 36.8175 25.2981 36.2595 24.9499 35.8165C26.1544 35.589 27.068 34.5287 27.068 33.2591C27.068 32.6532 26.8597 32.0952 26.5115 31.6522C27.716 31.4247 28.6296 30.3644 28.6296 29.0948ZM1.04108 40.0261V22.3278H7.28753V40.0261H1.04108ZM26.0269 30.6564H24.4653H20.301C20.0136 30.6564 19.7804 30.8891 19.7804 31.1769C19.7804 31.4648 20.0136 31.6975 20.301 31.6975H24.4653C25.3262 31.6975 26.0269 32.3981 26.0269 33.2591C26.0269 34.1201 25.3262 34.8207 24.4653 34.8207H23.4242H22.9037H19.2599C18.9726 34.8207 18.7394 35.0534 18.7394 35.3412C18.7394 35.6291 18.9726 35.8618 19.2599 35.8618H22.9037C23.7646 35.8618 24.4653 36.5624 24.4653 37.4234C24.4653 38.2844 23.7646 38.985 22.9037 38.985H8.3286V23.3689L8.833 23.3684C8.88349 23.3782 10.0927 23.3944 11.2702 22.2523C12.7724 20.7969 13.534 18.1953 13.534 14.5197C13.534 13.5479 13.6875 11.9171 14.7177 11.9171H14.8421C16.0034 11.9171 17.2407 13.5463 17.438 14.8794C17.5458 15.604 17.8596 18.138 17.3896 20.3347L16.7415 23.3689H25.5063C26.3673 23.3689 27.068 24.0695 27.068 24.9305C27.068 25.7915 26.3673 26.4921 25.5063 26.4921H24.4653H23.9447H20.301C20.0136 26.4921 19.7804 26.7248 19.7804 27.0126C19.7804 27.3005 20.0136 27.5332 20.301 27.5332H23.9447C24.4044 27.5332 25.4152 27.554 25.9509 27.6336C27.31 27.8351 27.5885 28.3634 27.5885 29.0948C27.5885 29.9558 26.8878 30.6564 26.0269 30.6564Z" stroke="#06BD6D" stroke-width="0.4" mask="url(#path-2-outside-2_606_670)"/>
<path d="M10.2456 42.3797C10.2456 43.8298 11.4209 45.0051 12.8709 45.0051H44.3747C45.8248 45.0051 47 43.8298 47 42.3797C47 42.3797 47 24.2756 47 13.5013L35.6805 3C26.3563 3 12.8709 3 12.8709 3C11.4209 3 10.2456 4.17527 10.2456 5.62532V16.1266" stroke="#0F4572" stroke-width="2"/>
<path d="M48 14.0017H36.7502C35.7832 14.0017 35 13.2176 35 12.2515V2" stroke="#0F4572" stroke-width="2"/>
<path fill-rule="evenodd" clip-rule="evenodd" d="M30.0667 31.7861V29.2124H36.9705V31.7861H30.0667ZM30.0667 22.3492H36.9705V24.9229H30.0667V22.3492ZM22.1908 15.4701H30.0667V18.0438L22.1908 18.0438V15.4701Z" fill="#0F4572"/>
<path d="M18.4292 8.09668H30.0667V10.6704H18.4292V8.09668Z" fill="#0F4572"/>
<path d="M30.0667 38.3494V35.7757H36.9705V38.3494H30.0667Z" fill="#0F4572"/>
</g>
<defs>
<clipPath id="clip0_606_670">
<rect width="48" height="48" fill="white"/>
</clipPath>
</defs>
</svg>
