<svg width="48" height="48" viewBox="0 0 48 48" fill="none" xmlns="http://www.w3.org/2000/svg">
<path fill-rule="evenodd" clip-rule="evenodd" d="M38.3024 40.0221C36.5433 42.4861 26.8388 43.0031 19.3685 43.0031C11.8982 43.0031 3.05274 42.4861 1.29358 40.0212C0.82116 39.3602 0.717581 38.5551 1.00811 37.8124C2.72263 33.4461 5.62369 32.4238 7.95969 32.0212C9.90747 31.6844 11.8073 30.9812 12.6721 30.5282C12.7058 30.1324 14.9357 32.428 14.9357 32.428L14.0532 33.3088C12.9551 33.7661 11.5942 33.9219 9.64053 34.1905C7.98495 34.4162 4.70663 35.1993 3.462 37.7156C3.52348 37.7728 5.84263 40.4768 19.3685 40.4768C32.8944 40.4768 36.0447 37.7762 36.1172 37.7156C34.8607 35.2036 31.5934 34.4162 29.9386 34.1905C27.9605 33.9177 26.6106 33.7669 25.526 33.3088L24.6435 32.428L26.918 30.5248C26.918 30.5248 29.6852 31.6836 31.6346 32.0221C33.9715 32.4254 36.8725 33.4469 38.5871 37.8149C38.8767 38.556 38.774 39.361 38.3024 40.0221ZM19.8081 31.1614C13.9193 31.1614 9.14537 24.0457 9.14537 18.1349C9.14537 10.9408 12.7117 5.1084 19.8081 5.1084C26.9087 5.1084 30.4708 10.9408 30.4708 18.1349C30.4708 24.0162 25.6969 31.1614 19.8081 31.1614ZM19.7812 8.63345C14.7883 8.63345 12.2788 12.9737 12.2788 18.3278C12.2788 22.7261 14.7631 28.0212 19.3483 28.0212C23.9336 28.0212 27.2835 22.7042 27.2835 18.3278C27.2835 12.9737 24.7774 8.63345 19.7812 8.63345Z" fill="#104473"/>
<path fill-rule="evenodd" clip-rule="evenodd" d="M46.0135 34.2133C43.3575 36.5999 40.4211 35.4243 40.4211 35.4243C40.406 35.4251 34.9904 30.839 29.8628 28.7413C35.8434 30.0811 38.7369 27.8453 38.7369 27.8453C38.7369 27.8453 39.9706 28.0053 42.1053 28.6875C44.0001 29.6837 45.019 29.6828 46.2114 32.6917C46.4135 33.2028 46.342 33.7578 46.0135 34.2133ZM33.6843 27.0032C31.2236 27.0942 30.3158 26.1611 30.3158 26.1611C30.3158 26.1611 35.4788 22.3683 31.1579 10.1611C31.1579 10.1611 31.5352 10.1611 33.1478 10.1611C38.0876 10.1611 40.566 14.1788 40.566 19.1346C40.566 23.1868 37.7777 26.8517 33.6843 27.0032Z" fill="#104473"/>
</svg>
